<svg xmlns="http://www.w3.org/2000/svg" height="800" width="1200" viewBox="-105.1209 -140.02325 911.0478 840.1395"><path d="M350.378 53.461C339.453 26.183 312.838-3.277 262.99.77c-63.499 6.903-83.287 67.756-73.689 104.059-25.29-17.125-68.294-24.655-105.829 7.497-48.464 48.581-22.54 114.281 4.101 130.04-29.362-2.718-75.768 17.122-86.034 69.022-10.92 64.438 38.201 102.003 86.034 102.003h530.413c55.312 0 86-47.851 82.558-92.979-5.426-58.896-59.32-81.493-88.72-76.651 24.562-13.704 57.365-78.076 7.485-128.682-39.595-37.662-90.07-23.958-107.818-7.532 9.567-31.462-6.122-96.498-70.34-106.784C436.71.266 432.435 0 428.362 0c-49.023.007-71.067 35.843-77.985 53.461" fill="#FFF"/><path d="M92.305 122.58c-28.003 25.35-38.195 82.79 12.286 116.368l201.391 138.169-97.648-223.713c-20.462-52.791-76.44-64.303-116.029-30.824" fill="#F37021"/><path d="M265.665 13.811c-32.736.667-81.893 39.65-60.017 99.178l100.995 238.186 35.49-250.526c8.211-62.25-38.898-90.986-76.468-86.838" fill="#CC004C"/><path d="M357.892 91.094h19.097s10.198 0 11.586 4.811c-7.515 6.137-27.97 6.906-25.254 39.687l32.103 215.549L495.73 112.33c20.517-53.322-22.548-97.854-60.749-99.215-1.784-.128-3.575-.232-5.429-.232-34.287-.001-73.579 24.918-71.659 78.211" fill="#6460AA"/><path d="M491.691 155.433L396.82 376.462l201.332-138.898c46.41-32.918 38.925-85.546 12.946-111.56-10.89-12.244-30.888-21.702-52.07-21.702-25.027-.005-51.81 13.269-67.336 51.131" fill="#0089D0"/><path d="M575.61 269.013L386.533 401.08H619.34c47.763 0 78.457-49.246 64.812-94.438-9.139-28.406-36.177-50.704-67.56-50.736-13.21.005-27.219 3.984-40.983 13.107" fill="#0DB14B"/><path d="M86.88 401.08h229.371L127.128 269.013c-43.692-28.072-92.82-11.646-110.556 34.939C1.538 357.279 39.075 401.08 86.88 401.08" fill="#FCB711"/><path d="M.74 496.66c0 22.492 18.386 63.433 88.594 63.433 64.73 0 85.174-29.702 85.174-43.321h-50.113s-2.38 17.993-30.649 17.993c-28.287 0-35.937-23.611-35.937-37.264 0-13.601 7.65-35.937 35.937-35.937 28.27 0 30.65 15.665 30.65 15.665h50.112c0-13.635-15-42.918-85.174-42.918C19.126 434.311.74 477.913.74 496.66m525.555 0c0 22.492 18.406 63.433 88.595 63.433 64.724 0 85.176-29.702 85.176-43.321h-50.078s-2.39 17.993-30.667 17.993c-28.29 0-35.948-23.611-35.948-37.264 0-13.601 7.658-35.937 35.948-35.937 28.276 0 30.667 15.665 30.667 15.665h50.078c0-13.635-14.984-42.918-85.176-42.918-70.188 0-88.595 43.602-88.595 62.349m-214.828-60.249v76.141l-58.32-76.141H187.54v120.601h44.977v-77.016l57.3 77.016h66.63V436.411h-44.98M455.594 528.2v.159h-37.476v-22.144h37.476v.072c8.002 0 14.47 4.918 14.47 10.974 0 6.041-6.468 10.939-14.47 10.939m-37.132-68.333h36.11v.051c6.118 0 11.08 4.025 11.08 8.979 0 4.973-4.962 8.963-11.08 8.963v.054h-36.11zm73.94 33.029c8.187 0 25.307-9.505 25.307-27.919 0-26.221-48.827-28.566-56.317-28.566H371.43v120.601h89.962c43.268 0 60.65-13.669 60.65-36.495 0-22.826-29.64-27.621-29.64-27.621z" fill="#292526"/></svg>