<svg xmlns="http://www.w3.org/2000/svg" height="800" width="1200" viewBox="-1350 -1050 11700 6300"><path d="M2800 1200h-700a900 900 0 000 1800h783a117 117 0 00117-117V817a817 817 0 011526-405l874 1529V817a817 817 0 011526-405l874 1529V0h500l100 100L8500 0h500v3383a817 817 0 01-1526 405l-874-1529v1124a817 817 0 01-1526 405l-874-1529v1124a817 817 0 01-817 817H2100a2100 2100 0 010-4200h700v500l-100 100 100 100z" fill="#c00"/><path d="M2800 600h-700a1500 1500 0 000 3000h1283a217 217 0 00217-217V817a217 217 0 01405-108l1590 2782a217 217 0 00405-108V817a217 217 0 01405-108l1590 2782a217 217 0 00405-108V0" stroke-width="200" stroke="#fff" fill="none"/></svg>