<svg xmlns="http://www.w3.org/2000/svg" height="800" width="1200" viewBox="-45 -16.9463 390 101.6778"><path fill="#020303" d="M17.7852 53.6913h6.3759v13.8702h2.2371V53.6913h6.3758v-1.7897H17.7853zm23.3781 2.2371c-2.0134 0-3.6913.783-4.8098 2.4609v-6.4877h-2.1253v15.66h2.1253V62.416c0-3.5794 2.2371-4.9217 4.4742-4.9217 2.0135 0 3.4676 1.1186 3.4676 3.915v6.264h2.1253v-6.3759c0-3.6912-2.1253-5.369-5.2573-5.369m10.5146 4.8098c.3355-2.4609 1.9015-3.5795 4.1387-3.5795 1.9015 0 3.803 1.0067 3.915 3.5795zm4.1387-5.0336c-4.0269 0-6.4877 2.1253-6.4877 6.264 0 3.5794 2.349 5.8165 6.3758 5.8165 2.7964 0 5.481-1.0067 5.9284-3.803h-2.349c-.4474 1.5659-1.7897 2.237-3.6913 2.237-2.5727 0-3.915-1.6778-4.1387-3.915h10.4027v-.671c.1119-3.8032-2.0134-5.9285-6.0403-5.9285zm85.5704 2.4608l-.1118-2.237h-2.1253c.1118.8948.1118 1.6778.1118 2.5726v8.613h2.1253v-5.369c0-2.7965 1.2305-4.1387 3.915-4.1387.4474 0 .8949 0 1.6779.2237v-2.0134c-.3356 0-.5593-.1119-1.3423-.1119-2.0134 0-3.3557 1.1186-4.2506 2.4608m65.8837 0l-.1119-2.237h-2.1252c.1118.8948.1118 1.6778.1118 2.5726v8.613h2.2372V61.745c0-2.7965 1.2304-4.1387 3.915-4.1387.4474 0 .8948 0 1.6778.2237v-2.0134c-.3356 0-.5593-.1119-1.3423-.1119-2.1253 0-3.5794 1.1186-4.3624 2.4608m-90.7159 7.1589l-3.915-9.6197h-2.7964l-3.8031 9.6197-3.5794-9.6197H100l4.4743 11.1857h2.9083l3.6912-9.5079 3.915 9.5079h2.7964l4.3625-11.1857h-2.2372zm-38.8143-5.481h-4.5861v-6.264h4.4742c3.0202 0 4.0269 1.1186 4.0269 2.9083 0 2.2371-1.0067 3.3557-3.915 3.3557m-.1119-7.9418h-6.7114v15.66h2.2372V61.633h4.8098c4.1387 0 6.1521-2.1253 6.1521-5.0335 0-2.6846-1.6778-4.698-6.4877-4.698m14.094 14.3176c-3.0201 0-4.5861-2.0134-4.5861-4.4742 0-2.6846 1.566-4.4743 4.5861-4.4743 3.132 0 4.698 1.9016 4.698 4.4743 0 2.4608-1.566 4.4742-4.698 4.4742m0-10.5145c-4.4743 0-6.9351 2.4608-6.9351 6.0403 0 3.8031 2.4608 6.0402 6.9351 6.0402 4.5861 0 6.9351-2.1252 6.9351-6.0402.1119-3.8032-2.2371-6.0403-6.9351-6.0403m34.6756 5.0336c.3356-2.4609 1.9016-3.5795 4.1387-3.5795 1.9016 0 3.8031 1.0067 3.8031 3.5795zm4.1387-5.0336c-4.0268 0-6.4877 2.1253-6.4877 6.264 0 3.5794 2.349 5.8165 6.3759 5.8165 2.7964 0 5.481-1.0067 5.9284-3.803h-2.2372c-.4474 1.5659-1.7897 2.237-3.6912 2.237-2.5727 0-3.915-1.6778-4.1387-3.915h10.4026v-.671c0-3.8032-2.2371-5.9285-6.152-5.9285zm86.9128 5.0336c.3355-2.4609 1.9015-3.5795 4.1387-3.5795 1.9015 0 3.8031 1.0067 3.8031 3.5795zm4.2505-5.0336c-4.0268 0-6.4877 2.1253-6.4877 6.264 0 3.5794 2.349 5.8165 6.3759 5.8165 2.7964 0 5.481-1.0067 5.9284-3.803h-2.2372c-.4474 1.5659-1.7897 2.237-3.6912 2.237-2.5727 0-3.915-1.6778-4.1387-3.915h10.4027v-.671c-.112-3.8032-2.2372-5.9285-6.1522-5.9285zm-50.5593-.783v.4474h-2.7964v1.566h2.7964v9.7316h2.2372V56.935h4.4743v-1.566h-4.4743v-.8948c0-1.7897.783-2.349 2.4608-2.349.5593 0 1.3423.1118 2.349.3355v-1.566c-.783-.1118-1.6778-.2237-2.7964-.2237-3.2439-.1118-4.2506 1.6779-4.2506 4.2506m-10.962 11.2975c-3.02 0-4.698-2.0134-4.698-4.4742 0-2.6846 1.678-4.4743 4.698-4.4743 3.132 0 4.698 1.9016 4.698 4.4743 0 2.4608-1.6778 4.4742-4.698 4.4742m0-10.5145c-4.4742 0-6.935 2.4608-6.935 6.0403 0 3.8031 2.4608 6.0402 6.935 6.0402 4.4743 0 6.9352-2.1252 6.9352-6.0402 0-3.8032-2.349-6.0403-6.9351-6.0403m100.1118 0c-2.349 0-3.8031 1.566-4.3624 2.7964-.6711-1.9015-2.349-2.7964-4.0268-2.7964-1.566 0-3.132.783-4.1387 2.4608l-.1119-2.0134h-2.0134c.1118.8949.1118 1.6779.1118 2.5727v8.613h2.2372v-5.3691c0-3.3557 1.9015-4.698 3.5794-4.698 1.7897 0 2.6846 1.2304 2.6846 4.3624v5.7047h2.1252v-5.3691c0-3.915 2.4609-4.698 3.5795-4.698 2.237 0 2.7964 1.4541 2.7964 4.4743v5.5928h2.2371V60.85c-.1118-3.6913-2.0134-5.1454-4.698-5.1454m15.66 5.481l-3.6913-.783c-1.6778-.3356-2.349-.6712-2.349-1.566 0-1.1186 1.3423-1.6779 3.2439-1.6779 1.566 0 3.0201.4475 3.132 1.7897h2.237c0-2.6845-2.9082-3.3557-5.369-3.3557-2.9083 0-5.481 1.0068-5.481 3.4676 0 1.7897 1.3423 2.4609 3.0201 2.9083l3.4676.783c1.2304.2237 2.4608.5593 2.4608 1.566 0 1.2304-1.2304 1.9015-3.6912 1.9015-2.0135 0-3.3558-.5592-3.5795-2.1252h-2.349c.2238 2.5727 2.5727 3.5794 5.7047 3.5794 4.2506 0 6.1522-1.2304 6.1522-3.5794.1118-1.6779-.8949-2.4609-2.9083-2.9083m-82.2148 4.698h-4.1387V53.5794h3.8032c5.5928 0 6.935 2.1253 6.935 6.1521 0 3.2439-1.2303 6.1522-6.5995 6.1522m.2237-13.9821h-6.5995v15.66h6.7114c5.481 0 8.613-2.7965 8.613-7.83 0-5.0336-2.6846-7.83-8.7249-7.83m45.9732 10.4026c0 2.6846-1.566 3.915-4.2506 3.915-2.1252 0-3.0201-.8948-3.0201-2.1252 0-2.4609 4.3624-2.2372 6.0403-2.2372h1.1185v.4474zm2.1253-2.6845c0-2.6846-2.2372-3.915-5.3692-3.915-2.4608 0-5.2572.6711-5.481 3.3557h2.349c.1119-1.1186 1.2305-1.9016 3.2439-1.9016 1.9016 0 3.2438.6712 3.2438 2.6846v.4474h-1.2304c-2.5727 0-8.2774-.2237-8.2774 3.6913 0 2.2371 1.9016 3.6913 4.698 3.6913 2.2371 0 3.5794-.2237 4.8098-1.9016l.1119 1.566h2.0134c-.1118-.6711-.1118-1.3423-.1118-2.1253z"/><path fill="#c00" d="M34.5638 5.8166l4.586.5592c2.0135.2238 2.2372 1.9016 2.2372 3.0202v5.3691H20.4698V9.396c0-1.1186.2237-2.7964 2.2371-3.0202l4.5862-.5592V1.2304H0v4.5862l4.5861.5592c2.0134.2238 2.2372 1.9016 2.2372 3.0202v17.6734c0 1.1185-.2237 2.7964-2.2372 3.02L0 30.7607v4.5862h27.1812v-4.5862l-4.5861-.5593c-2.0134-.2237-2.2372-1.9015-2.2372-3.02V21.812h20.9173v5.3691c0 1.1186-.2237 2.7964-2.2372 3.0201l-4.5861.5593v4.5862h27.1812v-4.5862l-4.5861-.5593c-2.0134-.2237-2.2372-1.9015-2.2372-3.02V9.396c0-1.1186.2238-2.7964 2.2372-3.0202l4.5861-.5592V1.2304H34.452v4.5862zM213.8702 28.859h-11.4094V7.83h11.4094c6.7115 0 8.9486 3.2438 8.9486 10.5145s-2.2371 10.5146-8.9486 10.5146m2.4609-27.6287h-33.557v4.5862l4.0268.4474c1.4541.2237 2.349.783 2.349 2.7964v18.1208c0 1.1186-.2237 2.7964-2.2372 3.0201l-4.586.5593v4.5862h34.0044c12.1924 0 22.1476-4.9217 22.1476-17.1141 0-12.0806-10.067-17.0023-22.1476-17.0023"/><path fill="#c00" d="M257.1588 18.9038l6.4877-10.5145 6.8233 10.5145zm38.1432 11.4094c-2.1253-.2237-2.7964-1.6779-3.4676-2.6846L276.1746 3.5794c-1.1186-1.6778-1.9016-2.2371-3.5794-2.2371h-25.727v4.5861l6.152.6712c.8949.1118 2.0135 1.2304 1.1186 2.9082l-11.5213 18.9038c-.4474.783-1.0067 1.6779-2.349 1.7897l-4.586.5593v4.5862h21.7002v-4.5862l-3.6913-.3355c-1.566-.2238-2.4609-1.3423-1.6779-2.5728l1.7897-2.7964h20.8054l1.566 2.349c1.3423 2.1253-.3356 2.9083-1.7897 3.132l-3.8031.4474v4.5862H300v-4.8099zM158.1655 5.8166l4.5862.5592c2.0134.2238 2.2371 1.9016 2.2371 3.0202V26.51l-18.009-23.8254c-.783-1.1186-1.454-1.4542-3.4675-1.4542h-23.2662v4.5862l4.5861.5592c2.0134.2238 2.2372 1.9016 2.2372 3.0202v17.6734c0 1.1185-.2238 2.7964-2.2372 3.02l-4.5861.5594v4.5861h21.7002v-4.4743l-4.5861-.5593c-2.0134-.2237-2.2372-1.9015-2.2372-3.02V10.067l18.009 23.8255c.783 1.1186 1.566 1.4542 3.4675 1.4542h16.443V9.396c0-1.1186.2237-2.7964 2.2371-3.0202l4.5862-.5592V1.2304h-21.7003zm-67.114 24.161c-8.613 0-12.0806-3.5794-12.0806-11.745 0-8.1655 3.5794-11.745 12.0806-11.745 8.613 0 12.0805 3.5795 12.0805 11.745.1118 8.0538-3.4676 11.745-12.0806 11.745m0-29.9776C69.0157 0 63.311 9.7315 63.311 18.2327c0 8.501 5.7047 18.2326 27.7405 18.2326 22.0357 0 27.7404-9.7315 27.7404-18.2326C118.9039 9.7315 113.1992 0 91.0515 0"/></svg>